<?xml version="1.0" encoding="UTF-8"?>
<svg width="934px" height="294px" viewBox="0 0 934 294" version="1.1" xmlns="http://www.w3.org/2000/svg" xmlns:xlink="http://www.w3.org/1999/xlink">
    <!-- Generator: Sketch 45.2 (43514) - http://www.bohemiancoding.com/sketch -->
    <title>Qualys-Horizontal</title>
    <desc>Created with Sketch.</desc>
    <defs>
        <polygon id="path-1" points="21.884 22.3389 21.884 0.6959 0.4676 0.6959 0.4676 22.3389 21.884 22.3389"></polygon>
    </defs>
    <g id="Page-1" stroke="none" stroke-width="1" fill="none" fill-rule="evenodd">
        <g id="Qualys-Horizontal">
            <g id="Logo-Horizontal">
                <path d="M123.0736,0.0004 C203.2306,0.0004 243.5346,42.8884 243.5346,42.8884 C243.5346,42.8884 248.1426,74.6344 245.2016,138.5554 C240.7586,235.1154 123.1016,293.1054 123.0916,293.1114 C123.0816,293.1164 5.4256,235.1154 0.9816,138.5554 C-1.9604,74.6344 2.6486,42.8884 2.6486,42.8884 C2.6486,42.8884 42.9156,0.0004 123.0736,0.0004" id="Fill-1" fill="#ED2E26"></path>
                <path d="M394.1781,196.538 C366.4931,196.538 343.9701,174.015 343.9701,146.33 C343.9701,118.646 366.4931,96.122 394.1781,96.122 C421.8641,96.122 444.3871,118.646 444.3871,146.33 C444.3871,174.015 421.8641,196.538 394.1781,196.538 M394.1781,75.825 C355.3011,75.825 323.6721,107.454 323.6721,146.33 C323.6721,169.863 333.5621,190.832 352.2721,206.971 C369.7941,222.084 394.9211,232.503 423.9321,237.331 C428.0801,235.052 435.9261,227.362 438.4241,222.095 C417.0491,218.407 407.2461,214.748 407.2461,214.748 C407.2461,214.748 409.9831,214.637 415.4771,213.096 C444.0321,205.087 464.9651,176.882 464.6851,146.33 C464.3271,107.455 433.0561,75.825 394.1781,75.825" id="Fill-4" fill="#262626"></path>
                <g id="Group-8" transform="translate(912.000000, 186.111000)">
                    <mask id="mask-2" fill="white">
                        <use xlink:href="#path-1"></use>
                    </mask>
                    <g id="Clip-7"></g>
                    <path d="M9.5736,7.0549 L9.5736,10.5339 L11.6796,10.5339 C12.2886,10.5339 12.7686,10.3719 13.1196,10.0529 C13.4706,9.7329 13.6456,9.3139 13.6456,8.7939 C13.6456,7.6359 12.9906,7.0549 11.6796,7.0549 L9.5736,7.0549 Z M15.7516,8.7049 C15.7516,9.5889 15.5136,10.3449 15.0416,10.9669 C14.5686,11.5929 13.9216,12.0299 13.0976,12.2739 L16.1646,17.0789 L13.7836,17.0789 L10.9916,12.4109 L9.5736,12.4109 L9.5736,17.0789 L7.5596,17.0789 L7.5596,5.1779 L11.9526,5.1779 C13.0826,5.1779 13.9966,5.5009 14.6996,6.1409 C15.4006,6.7809 15.7516,7.6359 15.7516,8.7049 L15.7516,8.7049 Z M5.0436,17.8119 C6.6296,19.4269 8.6736,20.2359 11.1766,20.2359 C13.6776,20.2359 15.7196,19.4269 17.3066,17.8119 C18.8936,16.1929 19.6876,14.0879 19.6876,11.4959 C19.6876,8.9019 18.8936,6.8039 17.3066,5.2019 C15.7196,3.5999 13.6776,2.7989 11.1766,2.7989 C8.6736,2.7989 6.6296,3.5999 5.0436,5.2019 C3.4566,6.8039 2.6646,8.9019 2.6646,11.4959 C2.6646,14.0879 3.4566,16.1929 5.0436,17.8119 L5.0436,17.8119 Z M3.4876,3.7169 C5.5006,1.7019 8.0626,0.6959 11.1766,0.6959 C14.2876,0.6959 16.8496,1.7019 18.8646,3.7169 C20.8776,5.7279 21.8846,8.3239 21.8846,11.4959 C21.8846,14.6979 20.8776,17.3059 18.8646,19.3209 C16.8496,21.3349 14.2876,22.3389 11.1766,22.3389 C8.0626,22.3389 5.5006,21.3349 3.4876,19.3209 C1.4726,17.3059 0.4676,14.6979 0.4676,11.4959 C0.4676,8.3239 1.4726,5.7279 3.4876,3.7169 L3.4876,3.7169 Z" id="Fill-6" fill="#262626" mask="url(#mask-2)"></path>
                </g>
                <path d="M784.0863,178.7245 L760.2733,115.5365 L739.0543,115.5365 L773.8003,203.7365 C773.8003,203.7365 758.4293,240.2755 758.4353,240.2725 C768.5473,240.2725 779.6093,239.5585 783.9393,228.9025 C794.0903,203.9095 829.4433,115.5365 829.4433,115.5365 L808.2193,115.5365 L784.0863,178.7245 Z" id="Fill-9" fill="#262626"></path>
                <path d="M704.4935,210.246 C704.4935,210.246 724.1875,209.881 724.1875,196.517 L724.1875,76.484 L704.4935,76.484 L704.4935,210.246 Z" id="Fill-11" fill="#262626"></path>
                <path d="M634.1439,191.7655 C622.2369,191.7655 604.4239,183.8185 604.1489,161.9265 L604.1489,161.7695 C604.1489,144.4825 616.9029,131.4455 633.8159,131.4455 C646.4489,131.4455 656.7129,138.0405 661.3019,149.1555 C663.1069,152.9135 663.9739,157.3175 663.8119,161.8885 C663.6459,166.5325 662.6069,170.9665 660.7899,174.7575 C656.1519,185.4075 646.1909,191.7655 634.1439,191.7655 L634.1439,191.7655 Z M663.6459,127.9765 C658.1619,120.3275 647.4489,112.9035 631.6749,112.9035 C604.7549,112.9035 584.4539,133.8405 584.4539,161.6045 C584.4539,174.5815 588.8909,186.6405 596.9489,195.5605 C605.6639,205.2085 617.6719,210.3085 631.6749,210.3085 C645.2419,210.3085 656.8589,204.7745 663.6459,195.2945 L663.6459,210.2455 C663.6459,210.2455 683.3409,209.9335 683.3409,196.5275 L683.3409,115.5365 L663.6459,115.5365 L663.6459,127.9765 Z" id="Fill-13" fill="#262626"></path>
                <path d="M548.5677,166.8739 C548.5677,182.7779 540.3077,191.6189 525.3237,191.7659 C510.1257,191.7659 502.7367,183.1389 502.7367,165.3929 L502.7367,115.5369 L483.0427,115.5369 L483.0427,169.3439 C483.0427,177.1099 484.3507,188.1859 490.5897,196.8499 C496.9647,205.7029 507.0427,210.2309 520.5357,210.3089 C520.7197,210.3109 520.9047,210.3119 521.0887,210.3119 C537.2257,210.3119 545.5367,202.9959 549.5557,197.3109 L549.5557,210.2459 C549.5557,210.2459 568.2627,209.9269 568.2627,197.1849 L568.2627,115.5369 L548.5677,115.5369 L548.5677,166.8739 Z" id="Fill-15" fill="#262626"></path>
                <path d="M876.6615,152.9647 C866.4275,148.5407 858.9855,144.7147 859.1165,138.7797 C859.2035,134.8527 864.3755,131.0927 869.7535,131.2787 C875.5095,131.4767 879.7765,135.4467 882.1585,138.6217 C882.1585,138.6217 892.9185,129.4247 894.2205,128.4397 C888.6465,119.2117 879.1785,114.0157 868.5585,113.7817 C853.4135,113.4487 840.8245,125.3287 840.4955,140.2637 C840.2105,153.2007 847.7885,158.5407 857.7255,164.1767 L874.0825,173.3727 C877.8555,176.0117 879.6365,177.9827 879.5465,182.0417 C879.4065,188.4037 874.0865,192.5277 867.1945,192.9357 C862.1255,193.2347 857.9625,190.3037 854.0175,186.1757 C846.3415,178.1417 834.5575,182.0037 830.9525,183.1647 C838.4495,200.4047 852.6325,210.4437 866.8025,210.7567 C884.6455,211.1497 898.9195,197.9797 899.2995,180.7737 C899.4805,172.4917 895.8505,162.2037 876.6615,152.9647" id="Fill-17" fill="#262626"></path>
                <path d="M62.9242,126.9296 C62.9242,92.7876 89.9152,65.0116 123.0912,65.0116 C156.2952,65.0116 183.3082,92.0246 183.3082,125.2276 C183.3082,151.7356 160.5222,173.5436 142.9602,184.7506 C149.7732,188.6376 164.8092,192.7196 179.2052,194.0386 C200.2272,177.7696 213.0482,152.6206 213.0482,125.2276 C213.0482,75.6256 172.6942,35.2716 123.0912,35.2716 C73.4892,35.2716 33.1352,75.6256 33.1352,125.2276 C33.1352,155.1856 45.6092,181.7986 69.2072,202.1926 C91.2702,221.2576 123.5432,233.9836 160.2882,240.0086 C168.2492,235.6096 181.8642,222.6216 186.9702,215.0186 C156.2812,211.0716 127.2372,203.5876 107.7672,193.3736 C78.0122,177.7656 62.9242,155.4096 62.9242,126.9296" id="Fill-19" fill="#FFFFFF"></path>
            </g>
        </g>
    </g>
</svg>