<svg version="1.1" viewBox="0 0 512 512" xmlns="http://www.w3.org/2000/svg" xmlns:xlink="http://www.w3.org/1999/xlink"><g transform="matrix(7.151 -1.8771 1.8771 7.151 -5.6735 103.06)" fill="#f7a8aa" stroke-width=".13526"><use xlink:href="#B"/><use xlink:href="#C"/></g><g transform="matrix(7.151 -1.8771 1.8771 7.151 -5.6735 103.06)" fill="#fcdddb" stroke-width=".13526"><use xlink:href="#D"/><use xlink:href="#E"/><use xlink:href="#F"/></g><g transform="matrix(7.151 -1.8771 1.8771 7.151 -5.6735 103.06)" fill="#f59298" stroke-width=".13526"><use xlink:href="#G"/><use xlink:href="#H"/><use xlink:href="#I"/></g><g transform="matrix(7.151 -1.8771 1.8771 7.151 -5.6735 103.06)" fill="#f7a8aa" stroke-width=".13526"><use xlink:href="#B"/><use xlink:href="#C"/></g><g transform="matrix(7.151 -1.8771 1.8771 7.151 -5.6735 103.06)" fill="#fcdddb" stroke-width=".13526"><use xlink:href="#D"/><use xlink:href="#E"/><use xlink:href="#F"/></g><g transform="matrix(7.151 -1.8771 1.8771 7.151 -5.6735 103.06)" fill="#f59298" stroke-width=".13526"><use xlink:href="#G"/><use xlink:href="#H"/><use xlink:href="#I"/></g><g transform="matrix(7.151 -1.8771 1.8771 7.151 -5.6735 103.06)" fill="#f7a8aa" stroke-width=".13526"><path d="m21.648 4.8066c-1.91 1.137-3.5745 2.6699-4.3145 2.6699-1.434 0-3.1768-0.011453-4.5898-0.18945 0 2.47 0.95055 5.3178 1.0605 7.4258-2.118 2.118-4.2364 4.2358-5.6504 6.8828-1.566-0.364-3.2954-0.60559-4.8984 0.06641-1.026 0.43-2.2175 1.7146-1.8105 3.1016 0.23 0.795 1.2357 1.6212 3.1777 2.1172-3.803 3.697-5.723 11.32-2.293 13.955-0.88 0.882-1.9196 1.7135-2.2266 2.8555-0.41 1.522 0.46449 2.0698 1.5215 2.2598 1.953 0.353 3.3751-0.607 4.7871-1.5 3.044 1.8 5.108 1.6788 8.627 1.8438 0.353 0.017 1.1816 1.0586 1.1816 1.0586s-2.3774-0.27039-3.6074 0.09961c-1.655 0.496-3.0971 2.0554-1.9531 3.3984 1.71 2.008 4.9851 2.7468 7.9531 2.0078 1.798 1.93 0.9605 5.0633-2.0625 6.3223 2.647-0.177 5.7034-1.9415 6.0234-5.6055 0.062-0.704-0.3431-1.7998-0.87109-2.3398-0.353-0.353-0.83789-0.88086-0.83789-0.88086s1.4901-2.8341-1.5879-4.4141c1.223-0.245 3.5312-1.2363 3.5312-1.2363s0.93267 1.1003 1.7637 1.2363c0.886 0.155 1.9539-0.35033 2.2949-1.2363 0.5-1.3-1.0586-2.293-1.0586-2.293l1.2363-1.9395s1.0648 1.0064 1.5488 1.8164c1.508 2.522 1.8028 5.0661 3.2148 7.5371 0.706 1.235 1.9525 2.2493 3.1875 2.7793 1.06 0.353 2.2182 0.42117 3.4102 0.20117 1.996-0.352 3.5642-1.0162 4.7012-1.7012 7.89-4.702 13.416-10.834 18.193-19.535 1.255-2.282 3.8627-6.8801 2.0977-9.7051l0.0078 0.02148c-0.883-1.412-3.3539-2.0532-5.2949-1.7012-7.167 1.653-16.8-0.62914-19.387-2.1191-0.177 0 0.38816-1.4075 0.03516-1.9375 0.53-0.353 0.70902-0.60006 1.416-0.41406 1.236 0.53 2.7308 0.30981 3.9668 0.13281-0.71-1.418-1.4527-4.1464-2.5117-5.7344-1.06 0.882-2.6763 1.5538-3.7363 2.2598-1.952-5.272-8.5575-6.2298-13.896-3.1758-0.153 0.088-0.29883 0.066406-0.29883 0.066406z" fill="#cd5c81"/><use xlink:href="#B"/></g><g transform="matrix(7.151 -1.8771 1.8771 7.151 -5.6735 103.06)" fill="#fcdddb" stroke-width=".13526"><path d="m32.512 10.523c-0.47678 0.0053-0.95683 0.09742-1.4199 0.29102-0.66 0.28-0.79961 0.86778-1.0996 1.1758-0.294 0.302-0.71027 0.11612-1.3223 0.20312-0.883 0.353-0.6318 2.3497-0.2168 3.3867l-0.0098-2e-3c1.06 2.648 4.5613 4.1616 7.0312 3.1016 1.94-0.88 1.9718-3.6283 1.0898-5.5703-0.68906-1.5172-2.3499-2.6048-4.0527-2.5859zm26.902 12.256c-0.11102 0.0038-0.22166 0.01498-0.33203 0.03711-0.706 0.353-0.41211 0.97-0.41211 1.5l-2e-3 -2e-3c0 1.059 0.58708 0.94203 0.70508 1.707-0.413 0.882-0.2063 1.6184-0.0293 1.4414-0.5 0.942-1.3242 1.4112-1.3242 2.1172 0.735-0.41 1.117-0.96875 2-0.96875 0.353 0-0.03125 0.41089-0.03125 0.58789-0.352 0.707-1.3228 0.44048-1.6758 1.1465-1.235 2.647-3.0287 5.0007-4.9707 7.4707-2.647 3.707-8.7007 8.3476-8.3477 7.6406-1.39 1.302-3.7429 3.1279-4.4199 3.4219-1.752 0.762-4.4127-0.52984-5.4727 1.4102 1.59 1.765 4.2084 0.85444 6.1504 0.14844 4.942-2.295 9.5425-5.8623 12.77-9.7383 3.648-4.382 9.474-12.323 7.209-16.971-0.27825-0.57225-1.0393-0.97559-1.8164-0.94922zm-2.5977 2.8008c-7.387 0.265-13.401 8.6183-17.596 15.238-0.812 1.28-2.5839 5.1552-1.1719 7.4492 0.029 0.145 7.9e-5 -2.4068 1.2051-4.7148 2.71-5.191 6.6464-10.531 10.859-14.166v-2e-3c1.713-1.477 4.4081-3.2747 6.7031-3.8047z" fill="#fff" opacity=".4" stroke-width=".13526"/></g><g transform="matrix(7.151 -1.8771 1.8771 7.151 -5.6735 103.06)" fill="#f59298" stroke-width=".13526"><path d="m20.877 9.5898c-0.16852 0.011156-0.24642 0.12069-0.35742 0.42969-0.148 0.412-0.58789 1.1465-0.58789 1.1465l-0.32227 0.61719-0.73633 1.2656-0.67774 1.4121-0.26367 0.58984-0.9707 1.207-0.88281 0.55859-0.91211 0.17774-0.9707-1.5293-0.85156-0.20703-0.85547 0.35352-2.0293 2.2656-2.3242 2.9707 0.11914 0.85352 0.5293 0.58398 4.0898 3.7949s0.64681 0.67692 1.3828 0.79492c0.736 0.118 1.4405 0.29445 2.0605-1.0605 0.62-1.355 0.50055-2.117 0.56055-2.793 0.06-0.676-0.03141-1.8833 0.05859-2.7363s0.4707-1.6173 0.9707-2.0293c0.5-0.412 0.58948-0.91314 1.6465-1.6191 1.057-0.706 1.3536-1.0005 1.7656-1.5605 0.412-0.56 0.49941-2.0868 0.44141-2.4688-0.058-0.382 0.03016-1.6782-0.08984-2.0312s-0.26484-0.91075-0.58984-0.96875c-0.08125-0.0145-0.14695-0.021297-0.20312-0.017578zm-11.979 17.363c-1.107 0.012-1.9531 0.15039-1.9531 0.15039l-1.9023 0.25-1.4043 1.3516-1.4512 2.5059-0.80078 2.7539-0.29883 3.6055 0.75 1.8535 1.5527 1.1523 0.75-0.55078 1.7051-1.1016s0.29644-0.34961 0.89844-0.59961 0.47313 0.09639 1.2031-0.09961c0.416-0.102 0.90017-0.60112 1.2012-1.2031 0.301-0.602 0.1902-1.2655-0.3418-1.9355-0.532-0.67-1.4769 0.05851-1.7109-1.2715-0.606-3.448 4.9691-3.4089 4.4551-5.7539h-2e-3c-0.17-0.789-1.0174-1.1254-2.6504-1.1074zm12.754 5.4824c-0.54399 0.01164-1.0081 0.18194-1.2715 0.55469-0.602 0.852-0.552 1.6029 0.25 2.2539 0.802 0.651 0.9023 0.40113 2.4043 1.7031 1.502 1.302 1.1027 1.2031 1.0527 2.4551-0.05 1.252-1.002 2.3043-3.457 3.4062-2.455 1.102-4.5588 9.99e-4 -5.2598-0.25-0.701-0.251-1.5031-2.1539-1.9531-2.5059-0.45-0.352-2.4052-0.95222-4.1582 0.80078l-1.5527 2.9082 2.0547 1.7031 3.8066 0.34961 4.3594 0.09961 6.3086-2.4531 1.5527-2.5547 1.0039-1.1016 1.1504 1.1523 1.8027 1.5039 1.002 2.4023 2.1055 3.0078 0.59961-2.1055 1.8535-5.0098 2.3535-4.6602-1.6523 1.2031c-1.153 0.802-0.90174 0.45078-1.8027 1.0508-0.901 0.6-1.1029 0.5-2.0039 0.5s-4.1052-2.7051-4.4062-2.9551-2.6552-2.0547-3.9082-2.8047c-0.70481-0.42188-1.535-0.66926-2.2344-0.6543z" fill="#000" opacity=".4" stroke-width=".13526"/></g><use transform="matrix(7.151 -1.8771 1.8771 7.151 -5.6735 103.06)" fill="#000000" stroke-width=".13526" xlink:href="#B"/><path d="m250.97 129.72c-12.732-7.3286-18.046 30.985-25.228 19.67 6.1284-10.491 11.765-27.395 24.919-28.417 16.197-1.1946 9.3102 22.742 18.878 26.636 2.9621 1.2102 3.1318-9.9951 8.4462-6.842-1.1173 11.178-12.376 9.2265-12.376 9.2265s0.76267 16.448-4.9626 13.915c-0.97229-1.4873 0.53052-3.6555 0.72216-6.4802 0.37867-4.3804-0.53588-9.0323-3.1334-5.4452a11.755 11.755 0 0 0-0.26405 13.086c0.55398 0.88328 5.4202 1.1375 2.9597 3.7026-1.1629 2.0935-5.1852 0.8623-6.8589-1.6701-5.5812-8.4488-0.38183-21.837 7.417-21.102-3.4537-4.4208-5.2791-13.267-10.545-16.295zm35.926 21.374c-0.36412-1.3872-2.476-3.7838-4.8762-1.6856-1.0231 1.7513-2.5889 2.8045-2.4869 5.6674 0.0972 2.8642-1.41 7.2956 0.6986 9.7076 6.2752 1.3111 9.5068-8.5107 6.6714-13.691zm-1.861 4.6157c0.4246 2.4488 0.0344 2.2686-0.60808 4.4406-0.63788 2.1697-1.5075 0.74899-2.246-0.69476-0.74187-1.4408-0.17625-2.0173-0.0803-4.6724 0.0703-2.266 0.75317-2.1699 1.0497-2.2633 1.3608-0.49228 1.4686 0.76164 1.8971 3.2095zm98.346 107.46c15.08-32.821 39.878-73.467 65.108-84.454 2.3791 11.835-14.735 10.258-13.681 19.429 0.0597 5.3813-2.957 9.0618-4.7306 16.338-7.9696 32.713-23.679 57.78-37.29 87.403-25.11 54.655-36.776 46.932-35.642 72.569-11.01-28.755 10.826-77.567 26.247-111.3zm46.179-4.0344c6.9083-16.314 24.287-48.416 47.227-63.816 3.9263 2.9594-7.9075 10.468-8.265 11.785-11.346 41.808-16.004 47.006-26.413 72.233-19.699 47.723-40.022 58.126-39.241 78.658-6.726-22.694 13.647-68.072 26.687-98.852zm-216.56 92.387c-4.1821-5.6521 3.0574-15.433 8.2778-13.6-1.4394 3.8941-3.657 11.692-8.2778 13.6z"/><defs><path id="B" d="m63.406 21.886c-0.883-1.412-3.354-2.052-5.295-1.7-7.167 1.653-16.8-0.63-19.387-2.12-0.177 0 0.388-1.408 0.035-1.938 0.53-0.353 0.71-0.6 1.417-0.414 1.236 0.53 2.73 0.31 3.966 0.133-0.71-1.418-1.453-4.146-2.512-5.734-1.06 0.882-2.675 1.554-3.735 2.26-1.952-5.272-8.558-6.23-13.897-3.176-0.153 0.088-0.298 0.066-0.298 0.066l-2.052-4.457c-1.91 1.137-3.574 2.67-4.314 2.67-1.434 0-3.177-0.01-4.59-0.188 0 2.47 0.95 5.317 1.06 7.425-2.118 2.118-4.236 4.236-5.65 6.883-1.566-0.364-3.295-0.605-4.898 0.067-1.026 0.43-2.217 1.713-1.81 3.1 0.23 0.795 1.235 1.622 3.177 2.118-3.803 3.697-5.723 11.319-2.293 13.954-0.88 0.882-1.92 1.715-2.227 2.857-0.41 1.522 0.465 2.07 1.522 2.26 1.953 0.353 3.376-0.607 4.788-1.5 3.044 1.8 5.108 1.677 8.627 1.842 0.353 0.017 1.18 1.06 1.18 1.06s-2.377-0.27-3.607 0.1c-1.655 0.496-3.097 2.054-1.953 3.397 1.71 2.008 4.986 2.747 7.954 2.008 1.798 1.93 0.96 5.063-2.063 6.322 2.647-0.177 5.703-1.94 6.023-5.604 0.062-0.704-0.342-1.8-0.87-2.34-0.353-0.353-0.838-0.882-0.838-0.882s1.49-2.833-1.588-4.413c1.223-0.245 3.53-1.236 3.53-1.236s0.934 1.1 1.765 1.236c0.886 0.155 1.954-0.35 2.295-1.236 0.5-1.3-1.06-2.294-1.06-2.294l1.236-1.94s1.066 1.008 1.55 1.818c1.508 2.522 1.803 5.065 3.215 7.536 0.706 1.235 1.953 2.25 3.188 2.78 1.06 0.353 2.218 0.42 3.41 0.2 1.996-0.352 3.563-1.015 4.7-1.7 7.89-4.702 13.417-10.834 18.194-19.535 1.255-2.283 3.862-6.882 2.097-9.706zm-22.42-10.524s0.47 0.82 0.706 1.412l1.038 2.57-1.425-0.24-1.334-0.955s-0.19 0.702-0.927 1.27c-0.358-1.033 0.415-1.552-0.666-2.71 0.882-0.53 2.608-1.35 2.608-1.35zm-19.416 42.27c0.324 1.883-1.353 3.795-2.5 4.53 1-1.56 1.97-2.236 0.824-5.442-0.453-1.266-1.59-2.177-2.736-2.94-0.353-0.236-0.84-0.394-1.383-0.53-0.588-0.148-1.236 0.294-1.765 0.823 0 0 1.677 0.825 3.118 1.09 0.824 1.09-0.824 1.118-0.824 1.118-0.177 0.176-4.78-0.464-4.47-2.705 0.118-0.855 1.853-2.5 5.324-1.148 1.917 0.747 4.11 3.448 4.413 5.206zm-1.942-6.62c0.865 0.394 0.883 1.413 0.883 2.295 0 0.177-0.177 0.177-0.353 0.353-0.56-0.97-1.44-1.442-2.295-2.117-0.195-0.155-0.294-0.207-0.117-0.383 0.53-0.53 1.236-0.442 1.882-0.148zm6.433-3.018c-0.33 1.234-1.475 1.024-1.59 0.397-0.1-0.548 0.57-0.712 0.808-0.982 0.192 0.1 0.827 0.415 0.78 0.585zm6.69 3.235c-1.897-5.714-7.193-10.942-9.763-12.444-0.153-0.09-0.475 0.387-0.475 0.387s2.317 2.173 2.67 3.762c0.353 1.413-0.44 2.924-1.324 3.982-3.53 3.355-8.318 2.692-12.862 2.372-1.42-0.1-3.497-1.058-2.405-3.177-1.59 1.235-4.06 3.54-5.847 2.824-0.346-0.14-0.87-1.022-0.49-1.828 0.644-1.36 2.802-3.496 4.69-4.444 0.1-0.192-0.145-0.53-0.84-0.2-0.717 0.33-2.14 1.704-2.7 1.423-3.22-1.584-1.157-7.503-0.1-9.456 1.314-2.427 2.99-2.86 4.754-3.4-2.1-0.374-3.705-0.593-4.764-1.652-0.53-0.706-0.277-1.257 0.253-1.963 0.53-0.53 1.134-0.893 1.883-1.112 0.705-0.206 1.326-0.122 2.017 0.027 1.734 0.374 1.828 1.254 2.7 1.077-0.184-0.395-1.073-1.246-0.902-1.602 0.853-1.782 2.255-3.675 4.176-5.288 0.24-0.2 0.452-0.25 0.805-0.25 0.53 0.177 0.326 0.71 0.632 1.226 0.525 0.885 1.982 0.88 2.864 0.172 1.765-1.412 2.36-4.06 3.065-6.18 0-0.177 0.575-1.284-0.393-0.97-0.47 1.937-1.236 3.53-2.295 5.295-0.53 0.706-1.143 1.353-2.025 1-0.177-0.177-0.546-0.274-0.623-0.823-0.353-2.53-0.872-7.26-0.872-7.26s2.458 0.326 3.38 0.115c0.546-0.125 1.772-1.578 3.008-2.107 0.882 1.235 1.705 2.404 2.47 3.62 3.53-1.59 7.677-2.868 11.207-0.22 1.236 1.06 2.548 2.378 2.966 3.56 0.318 0.894 0.518 3.103 0.28 4.785 3 1.588 5.967 2.485 9.328 3.158 1.497 0.3 2.63 0.423 4.094 0.54 0.725 0.057 2.414 0.296 5.793-0.297-6.879 1.413-12.439 5.835-17.106 11.229-2.294 2.645-6.442 9.12-6.983 11.438-0.23 0.993-0.298 1.51-0.254 2.68zm28.18-17.51c-1.148 3.407-4.126 7.864-7.194 11.205-2.85 3.104-10.95 10.546-16.647 10.23-2.667-0.147-3.716-2.902-2.756-5.966 1.824-5.824 9.855-17.618 20.066-21.847 2.12-0.88 5.87-1.28 6.707-0.155 1.2 1.624 0.536 4.415-0.176 6.53z"/><path id="C" d="m63.406 21.886c-0.883-1.412-3.354-2.052-5.295-1.7-7.167 1.653-16.8-0.63-19.387-2.12-0.177 0 0.388-1.408 0.035-1.938 0.53-0.353 0.71-0.6 1.417-0.414 1.236 0.53 2.73 0.31 3.966 0.133-0.71-1.418-1.453-4.146-2.512-5.734-1.06 0.882-2.675 1.554-3.735 2.26-1.952-5.272-8.558-6.23-13.897-3.176-0.153 0.088-0.298 0.066-0.298 0.066l-2.052-4.457c-1.91 1.137-3.574 2.67-4.314 2.67-1.434 0-3.177-0.01-4.59-0.188 0 2.47 0.95 5.317 1.06 7.425-2.118 2.118-4.236 4.236-5.65 6.883-1.566-0.364-3.295-0.605-4.898 0.067-1.026 0.43-2.217 1.713-1.81 3.1 0.23 0.795 1.235 1.622 3.177 2.118-3.803 3.697-5.723 11.319-2.293 13.954-0.88 0.882-1.92 1.715-2.227 2.857-0.41 1.522 0.465 2.07 1.522 2.26 1.953 0.353 3.376-0.607 4.788-1.5 3.044 1.8 5.108 1.677 8.627 1.842 0.353 0.017 1.18 1.06 1.18 1.06s-2.377-0.27-3.607 0.1c-1.655 0.496-3.097 2.054-1.953 3.397 1.71 2.008 4.986 2.747 7.954 2.008 1.798 1.93 0.96 5.063-2.063 6.322 2.647-0.177 5.703-1.94 6.023-5.604 0.062-0.704-0.342-1.8-0.87-2.34-0.353-0.353-0.838-0.882-0.838-0.882s1.49-2.833-1.588-4.413c1.223-0.245 3.53-1.236 3.53-1.236s0.934 1.1 1.765 1.236c0.886 0.155 1.954-0.35 2.295-1.236 0.5-1.3-1.06-2.294-1.06-2.294l1.236-1.94s1.066 1.008 1.55 1.818c1.508 2.522 1.803 5.065 3.215 7.536 0.706 1.235 1.953 2.25 3.188 2.78 1.06 0.353 2.218 0.42 3.41 0.2 1.996-0.352 3.563-1.015 4.7-1.7 7.89-4.702 13.417-10.834 18.194-19.535 1.255-2.282 3.862-6.88 2.097-9.705zm-2.47 7.833c-1.148 3.407-4.126 7.864-7.194 11.205-2.85 3.104-10.95 10.546-16.647 10.23-2.667-0.147-3.716-2.902-2.756-5.966 1.824-5.824 9.855-17.618 20.066-21.847 2.12-0.88 5.87-1.28 6.707-0.155 1.2 1.624 0.536 4.415-0.176 6.53z"/><path id="D" d="m28.454 15.58c-0.415-1.037-0.667-3.034 0.216-3.387 0.612-0.087 1.028 0.1 1.322-0.202 0.3-0.308 0.44-0.897 1.1-1.177 2.117-0.885 4.59 0.353 5.472 2.295s0.85 4.69-1.09 5.57c-2.47 1.06-5.97-0.452-7.03-3.1z"/><path id="E" d="m58.67 24.317c0-0.53-0.294-1.147 0.412-1.5 0.883-0.177 1.83 0.258 2.148 0.912 2.265 4.648-3.56 12.588-7.208 16.97-3.227 3.876-7.828 7.443-12.77 9.738-1.942 0.706-4.56 1.618-6.15-0.147 1.06-1.94 3.72-0.65 5.472-1.412 0.677-0.294 3.03-2.118 4.42-3.42-0.353 0.707 5.7-3.935 8.347-7.642 1.942-2.47 3.737-4.823 4.972-7.47 0.353-0.706 1.324-0.44 1.676-1.147 0-0.177 0.383-0.588 0.03-0.588-0.883 0-1.265 0.56-2 0.97 0-0.706 0.824-1.176 1.324-2.118-0.177 0.177-0.383-0.56 0.03-1.442-0.118-0.765-0.706-0.647-0.706-1.706z"/><path id="F" d="m50.113 29.386c-4.213 3.635-8.15 8.976-10.86 14.167-1.205 2.308-1.175 4.86-1.204 4.715-1.412-2.294 0.36-6.17 1.172-7.45 4.195-6.62 10.208-14.972 17.595-15.237-2.295 0.53-4.99 2.327-6.703 3.804z"/><path id="G" d="m9.26 40.853c1.753-1.753 3.707-1.152 4.157-0.8s1.253 2.254 1.954 2.505 2.805 1.352 5.26 0.25 3.406-2.154 3.456-3.406 0.45-1.153-1.052-2.455-1.603-1.052-2.405-1.703-0.852-1.402-0.25-2.254 2.254-0.65 3.507 0.1 3.606 2.554 3.907 2.804 3.507 2.956 4.408 2.956 1.102 0.1 2.003-0.5 0.65-0.25 1.803-1.052l1.653-1.202-2.354 4.66-1.854 5.01-0.6 2.105-2.104-3.007-1.002-2.404-1.803-1.503-1.152-1.152-1.002 1.102-1.553 2.554-6.31 2.454-4.358-0.1-3.807-0.35-2.054-1.703"/><path id="H" d="m11.55 28.06c0.514 2.345-5.06 2.307-4.454 5.755 0.234 1.33 1.178 0.6 1.71 1.27s0.644 1.335 0.343 1.937-0.786 1.1-1.202 1.202c-0.73 0.196-0.6-0.15-1.202 0.1s-0.9 0.6-0.9 0.6l-1.705 1.102-0.75 0.55-1.553-1.152-0.75-1.854 0.3-3.606 0.8-2.754 1.452-2.504 1.403-1.352 1.903-0.25s0.847-0.138 1.954-0.15c1.633-0.018 2.48 0.318 2.65 1.107z"/><path id="I" d="m8.783 22.286 4.09 3.795s0.647 0.676 1.383 0.794 1.44 0.295 2.06-1.06 0.5-2.118 0.56-2.794-0.03-1.883 0.06-2.736 0.47-1.618 0.97-2.03 0.59-0.912 1.647-1.618 1.353-1 1.765-1.56 0.5-2.088 0.442-2.47 0.03-1.677-0.09-2.03-0.265-0.912-0.59-0.97-0.412 0-0.56 0.412-0.588 1.147-0.588 1.147l-0.323 0.618-0.736 1.265-0.677 1.412-0.265 0.59-0.97 1.206-0.883 0.56-0.912 0.177-0.97-1.53-0.853-0.206-0.854 0.353-2.03 2.265-2.324 2.972 0.118 0.853"/></defs></svg>
